<?xml version="1.0" encoding="utf-8" standalone="no"?>
<!DOCTYPE svg PUBLIC "-//W3C//DTD SVG 1.1//EN"
  "http://www.w3.org/Graphics/SVG/1.1/DTD/svg11.dtd">
<svg xmlns:xlink="http://www.w3.org/1999/xlink" width="495.36pt" height="308.88pt" viewBox="0 0 495.36 308.88" xmlns="http://www.w3.org/2000/svg" version="1.1">
 <metadata>
  <rdf:RDF xmlns:dc="http://purl.org/dc/elements/1.1/" xmlns:cc="http://creativecommons.org/ns#" xmlns:rdf="http://www.w3.org/1999/02/22-rdf-syntax-ns#">
   <cc:Work>
    <dc:type rdf:resource="http://purl.org/dc/dcmitype/StillImage"/>
    <dc:date>2025-02-07T14:15:31.862228</dc:date>
    <dc:format>image/svg+xml</dc:format>
    <dc:creator>
     <cc:Agent>
      <dc:title>Matplotlib v3.8.2, https://matplotlib.org/</dc:title>
     </cc:Agent>
    </dc:creator>
   </cc:Work>
  </rdf:RDF>
 </metadata>
 <defs>
  <style type="text/css">*{stroke-linejoin: round; stroke-linecap: butt}</style>
 </defs>
 <g id="figure_1">
  <g id="patch_1">
   <path d="M 0 308.88 
L 495.36 308.88 
L 495.36 0 
L 0 0 
L 0 308.88 
z
" style="fill: none"/>
  </g>
  <g id="axes_1">
   <g id="patch_2">
    <path d="M 35.589688 273.290312 
L 495.36 273.290312 
L 495.36 11.318906 
L 35.589688 11.318906 
L 35.589688 273.290312 
z
" style="fill: none"/>
   </g>
   <g id="PathCollection_1">
    <defs>
     <path id="m173322b256" d="M 0 3 
C 0.795609 3 1.55874 2.683901 2.12132 2.12132 
C 2.683901 1.55874 3 0.795609 3 0 
C 3 -0.795609 2.683901 -1.55874 2.12132 -2.12132 
C 1.55874 -2.683901 0.795609 -3 0 -3 
C -0.795609 -3 -1.55874 -2.683901 -2.12132 -2.12132 
C -2.683901 -1.55874 -3 -0.795609 -3 0 
C -3 0.795609 -2.683901 1.55874 -2.12132 2.12132 
C -1.55874 2.683901 -0.795609 3 0 3 
z
" style="stroke: #1f77b4"/>
    </defs>
    <g clip-path="url(#p1db59cf4d0)">
     <use xlink:href="#m173322b256" x="56.488338" y="261.285919" style="fill: #1f77b4; stroke: #1f77b4"/>
     <use xlink:href="#m173322b256" x="69.154187" y="261.132233" style="fill: #1f77b4; stroke: #1f77b4"/>
     <use xlink:href="#m173322b256" x="81.820036" y="260.978547" style="fill: #1f77b4; stroke: #1f77b4"/>
     <use xlink:href="#m173322b256" x="132.483431" y="260.210119" style="fill: #1f77b4; stroke: #1f77b4"/>
     <use xlink:href="#m173322b256" x="145.14928" y="259.134318" style="fill: #1f77b4; stroke: #1f77b4"/>
     <use xlink:href="#m173322b256" x="157.815129" y="258.519575" style="fill: #1f77b4; stroke: #1f77b4"/>
     <use xlink:href="#m173322b256" x="170.480978" y="258.058518" style="fill: #1f77b4; stroke: #1f77b4"/>
     <use xlink:href="#m173322b256" x="183.146826" y="256.214289" style="fill: #1f77b4; stroke: #1f77b4"/>
     <use xlink:href="#m173322b256" x="195.812675" y="254.37006" style="fill: #1f77b4; stroke: #1f77b4"/>
     <use xlink:href="#m173322b256" x="208.478524" y="252.064774" style="fill: #1f77b4; stroke: #1f77b4"/>
     <use xlink:href="#m173322b256" x="221.144373" y="249.759488" style="fill: #1f77b4; stroke: #1f77b4"/>
     <use xlink:href="#m173322b256" x="233.810222" y="248.683688" style="fill: #1f77b4; stroke: #1f77b4"/>
     <use xlink:href="#m173322b256" x="246.476071" y="248.068945" style="fill: #1f77b4; stroke: #1f77b4"/>
     <use xlink:href="#m173322b256" x="259.141919" y="247.14683" style="fill: #1f77b4; stroke: #1f77b4"/>
     <use xlink:href="#m173322b256" x="271.807768" y="245.763658" style="fill: #1f77b4; stroke: #1f77b4"/>
     <use xlink:href="#m173322b256" x="284.473617" y="244.073115" style="fill: #1f77b4; stroke: #1f77b4"/>
     <use xlink:href="#m173322b256" x="297.139466" y="239.155171" style="fill: #1f77b4; stroke: #1f77b4"/>
     <use xlink:href="#m173322b256" x="309.805315" y="235.313028" style="fill: #1f77b4; stroke: #1f77b4"/>
     <use xlink:href="#m173322b256" x="322.471163" y="225.323454" style="fill: #1f77b4; stroke: #1f77b4"/>
     <use xlink:href="#m173322b256" x="335.137012" y="221.48131" style="fill: #1f77b4; stroke: #1f77b4"/>
     <use xlink:href="#m173322b256" x="347.802861" y="210.108565" style="fill: #1f77b4; stroke: #1f77b4"/>
     <use xlink:href="#m173322b256" x="360.46871" y="198.428449" style="fill: #1f77b4; stroke: #1f77b4"/>
     <use xlink:href="#m173322b256" x="373.134559" y="185.057789" style="fill: #1f77b4; stroke: #1f77b4"/>
     <use xlink:href="#m173322b256" x="385.800408" y="172.301872" style="fill: #1f77b4; stroke: #1f77b4"/>
     <use xlink:href="#m173322b256" x="398.466256" y="159.545955" style="fill: #1f77b4; stroke: #1f77b4"/>
     <use xlink:href="#m173322b256" x="411.132105" y="150.478496" style="fill: #1f77b4; stroke: #1f77b4"/>
     <use xlink:href="#m173322b256" x="423.797954" y="128.962491" style="fill: #1f77b4; stroke: #1f77b4"/>
     <use xlink:href="#m173322b256" x="436.463803" y="114.669717" style="fill: #1f77b4; stroke: #1f77b4"/>
     <use xlink:href="#m173322b256" x="449.129652" y="92.692655" style="fill: #1f77b4; stroke: #1f77b4"/>
     <use xlink:href="#m173322b256" x="461.795501" y="62.570249" style="fill: #1f77b4; stroke: #1f77b4"/>
     <use xlink:href="#m173322b256" x="474.461349" y="23.226697" style="fill: #1f77b4; stroke: #1f77b4"/>
    </g>
   </g>
   <g id="matplotlib.axis_1">
    <g id="xtick_1">
     <g id="line2d_1">
      <defs>
       <path id="mcec34e516d" d="M 0 0 
L 0 3.5 
" style="stroke: #000000; stroke-width: 0.8"/>
      </defs>
      <g>
       <use xlink:href="#mcec34e516d" x="56.488338" y="273.290312" style="stroke: #000000; stroke-width: 0.8"/>
      </g>
     </g>
     <g id="text_1">
      <!-- 1991 -->
      <g transform="translate(58.419901 298.105312) rotate(-90) scale(0.07 -0.07)">
       <defs>
        <path id="DejaVuSans-31" d="M 794 531 
L 1825 531 
L 1825 4091 
L 703 3866 
L 703 4441 
L 1819 4666 
L 2450 4666 
L 2450 531 
L 3481 531 
L 3481 0 
L 794 0 
L 794 531 
z
" transform="scale(0.015625)"/>
        <path id="DejaVuSans-39" d="M 703 97 
L 703 672 
Q 941 559 1184 500 
Q 1428 441 1663 441 
Q 2288 441 2617 861 
Q 2947 1281 2994 2138 
Q 2813 1869 2534 1725 
Q 2256 1581 1919 1581 
Q 1219 1581 811 2004 
Q 403 2428 403 3163 
Q 403 3881 828 4315 
Q 1253 4750 1959 4750 
Q 2769 4750 3195 4129 
Q 3622 3509 3622 2328 
Q 3622 1225 3098 567 
Q 2575 -91 1691 -91 
Q 1453 -91 1209 -44 
Q 966 3 703 97 
z
M 1959 2075 
Q 2384 2075 2632 2365 
Q 2881 2656 2881 3163 
Q 2881 3666 2632 3958 
Q 2384 4250 1959 4250 
Q 1534 4250 1286 3958 
Q 1038 3666 1038 3163 
Q 1038 2656 1286 2365 
Q 1534 2075 1959 2075 
z
" transform="scale(0.015625)"/>
       </defs>
       <use xlink:href="#DejaVuSans-31"/>
       <use xlink:href="#DejaVuSans-39" x="63.623047"/>
       <use xlink:href="#DejaVuSans-39" x="127.246094"/>
       <use xlink:href="#DejaVuSans-31" x="190.869141"/>
      </g>
     </g>
    </g>
    <g id="xtick_2">
     <g id="line2d_2">
      <g>
       <use xlink:href="#mcec34e516d" x="69.154187" y="273.290312" style="stroke: #000000; stroke-width: 0.8"/>
      </g>
     </g>
     <g id="text_2">
      <!-- 1992 -->
      <g transform="translate(71.085749 298.105312) rotate(-90) scale(0.07 -0.07)">
       <defs>
        <path id="DejaVuSans-32" d="M 1228 531 
L 3431 531 
L 3431 0 
L 469 0 
L 469 531 
Q 828 903 1448 1529 
Q 2069 2156 2228 2338 
Q 2531 2678 2651 2914 
Q 2772 3150 2772 3378 
Q 2772 3750 2511 3984 
Q 2250 4219 1831 4219 
Q 1534 4219 1204 4116 
Q 875 4013 500 3803 
L 500 4441 
Q 881 4594 1212 4672 
Q 1544 4750 1819 4750 
Q 2544 4750 2975 4387 
Q 3406 4025 3406 3419 
Q 3406 3131 3298 2873 
Q 3191 2616 2906 2266 
Q 2828 2175 2409 1742 
Q 1991 1309 1228 531 
z
" transform="scale(0.015625)"/>
       </defs>
       <use xlink:href="#DejaVuSans-31"/>
       <use xlink:href="#DejaVuSans-39" x="63.623047"/>
       <use xlink:href="#DejaVuSans-39" x="127.246094"/>
       <use xlink:href="#DejaVuSans-32" x="190.869141"/>
      </g>
     </g>
    </g>
    <g id="xtick_3">
     <g id="line2d_3">
      <g>
       <use xlink:href="#mcec34e516d" x="81.820036" y="273.290312" style="stroke: #000000; stroke-width: 0.8"/>
      </g>
     </g>
     <g id="text_3">
      <!-- 1993 -->
      <g transform="translate(83.751598 298.105312) rotate(-90) scale(0.07 -0.07)">
       <defs>
        <path id="DejaVuSans-33" d="M 2597 2516 
Q 3050 2419 3304 2112 
Q 3559 1806 3559 1356 
Q 3559 666 3084 287 
Q 2609 -91 1734 -91 
Q 1441 -91 1130 -33 
Q 819 25 488 141 
L 488 750 
Q 750 597 1062 519 
Q 1375 441 1716 441 
Q 2309 441 2620 675 
Q 2931 909 2931 1356 
Q 2931 1769 2642 2001 
Q 2353 2234 1838 2234 
L 1294 2234 
L 1294 2753 
L 1863 2753 
Q 2328 2753 2575 2939 
Q 2822 3125 2822 3475 
Q 2822 3834 2567 4026 
Q 2313 4219 1838 4219 
Q 1578 4219 1281 4162 
Q 984 4106 628 3988 
L 628 4550 
Q 988 4650 1302 4700 
Q 1616 4750 1894 4750 
Q 2613 4750 3031 4423 
Q 3450 4097 3450 3541 
Q 3450 3153 3228 2886 
Q 3006 2619 2597 2516 
z
" transform="scale(0.015625)"/>
       </defs>
       <use xlink:href="#DejaVuSans-31"/>
       <use xlink:href="#DejaVuSans-39" x="63.623047"/>
       <use xlink:href="#DejaVuSans-39" x="127.246094"/>
       <use xlink:href="#DejaVuSans-33" x="190.869141"/>
      </g>
     </g>
    </g>
    <g id="xtick_4">
     <g id="line2d_4">
      <g>
       <use xlink:href="#mcec34e516d" x="94.485885" y="273.290312" style="stroke: #000000; stroke-width: 0.8"/>
      </g>
     </g>
     <g id="text_4">
      <!-- 1994 -->
      <g transform="translate(96.417447 298.105312) rotate(-90) scale(0.07 -0.07)">
       <defs>
        <path id="DejaVuSans-34" d="M 2419 4116 
L 825 1625 
L 2419 1625 
L 2419 4116 
z
M 2253 4666 
L 3047 4666 
L 3047 1625 
L 3713 1625 
L 3713 1100 
L 3047 1100 
L 3047 0 
L 2419 0 
L 2419 1100 
L 313 1100 
L 313 1709 
L 2253 4666 
z
" transform="scale(0.015625)"/>
       </defs>
       <use xlink:href="#DejaVuSans-31"/>
       <use xlink:href="#DejaVuSans-39" x="63.623047"/>
       <use xlink:href="#DejaVuSans-39" x="127.246094"/>
       <use xlink:href="#DejaVuSans-34" x="190.869141"/>
      </g>
     </g>
    </g>
    <g id="xtick_5">
     <g id="line2d_5">
      <g>
       <use xlink:href="#mcec34e516d" x="107.151733" y="273.290312" style="stroke: #000000; stroke-width: 0.8"/>
      </g>
     </g>
     <g id="text_5">
      <!-- 1995 -->
      <g transform="translate(109.083296 298.105312) rotate(-90) scale(0.07 -0.07)">
       <defs>
        <path id="DejaVuSans-35" d="M 691 4666 
L 3169 4666 
L 3169 4134 
L 1269 4134 
L 1269 2991 
Q 1406 3038 1543 3061 
Q 1681 3084 1819 3084 
Q 2600 3084 3056 2656 
Q 3513 2228 3513 1497 
Q 3513 744 3044 326 
Q 2575 -91 1722 -91 
Q 1428 -91 1123 -41 
Q 819 9 494 109 
L 494 744 
Q 775 591 1075 516 
Q 1375 441 1709 441 
Q 2250 441 2565 725 
Q 2881 1009 2881 1497 
Q 2881 1984 2565 2268 
Q 2250 2553 1709 2553 
Q 1456 2553 1204 2497 
Q 953 2441 691 2322 
L 691 4666 
z
" transform="scale(0.015625)"/>
       </defs>
       <use xlink:href="#DejaVuSans-31"/>
       <use xlink:href="#DejaVuSans-39" x="63.623047"/>
       <use xlink:href="#DejaVuSans-39" x="127.246094"/>
       <use xlink:href="#DejaVuSans-35" x="190.869141"/>
      </g>
     </g>
    </g>
    <g id="xtick_6">
     <g id="line2d_6">
      <g>
       <use xlink:href="#mcec34e516d" x="119.817582" y="273.290312" style="stroke: #000000; stroke-width: 0.8"/>
      </g>
     </g>
     <g id="text_6">
      <!-- 1996 -->
      <g transform="translate(121.749145 298.105312) rotate(-90) scale(0.07 -0.07)">
       <defs>
        <path id="DejaVuSans-36" d="M 2113 2584 
Q 1688 2584 1439 2293 
Q 1191 2003 1191 1497 
Q 1191 994 1439 701 
Q 1688 409 2113 409 
Q 2538 409 2786 701 
Q 3034 994 3034 1497 
Q 3034 2003 2786 2293 
Q 2538 2584 2113 2584 
z
M 3366 4563 
L 3366 3988 
Q 3128 4100 2886 4159 
Q 2644 4219 2406 4219 
Q 1781 4219 1451 3797 
Q 1122 3375 1075 2522 
Q 1259 2794 1537 2939 
Q 1816 3084 2150 3084 
Q 2853 3084 3261 2657 
Q 3669 2231 3669 1497 
Q 3669 778 3244 343 
Q 2819 -91 2113 -91 
Q 1303 -91 875 529 
Q 447 1150 447 2328 
Q 447 3434 972 4092 
Q 1497 4750 2381 4750 
Q 2619 4750 2861 4703 
Q 3103 4656 3366 4563 
z
" transform="scale(0.015625)"/>
       </defs>
       <use xlink:href="#DejaVuSans-31"/>
       <use xlink:href="#DejaVuSans-39" x="63.623047"/>
       <use xlink:href="#DejaVuSans-39" x="127.246094"/>
       <use xlink:href="#DejaVuSans-36" x="190.869141"/>
      </g>
     </g>
    </g>
    <g id="xtick_7">
     <g id="line2d_7">
      <g>
       <use xlink:href="#mcec34e516d" x="132.483431" y="273.290312" style="stroke: #000000; stroke-width: 0.8"/>
      </g>
     </g>
     <g id="text_7">
      <!-- 1997 -->
      <g transform="translate(134.414994 298.105312) rotate(-90) scale(0.07 -0.07)">
       <defs>
        <path id="DejaVuSans-37" d="M 525 4666 
L 3525 4666 
L 3525 4397 
L 1831 0 
L 1172 0 
L 2766 4134 
L 525 4134 
L 525 4666 
z
" transform="scale(0.015625)"/>
       </defs>
       <use xlink:href="#DejaVuSans-31"/>
       <use xlink:href="#DejaVuSans-39" x="63.623047"/>
       <use xlink:href="#DejaVuSans-39" x="127.246094"/>
       <use xlink:href="#DejaVuSans-37" x="190.869141"/>
      </g>
     </g>
    </g>
    <g id="xtick_8">
     <g id="line2d_8">
      <g>
       <use xlink:href="#mcec34e516d" x="145.14928" y="273.290312" style="stroke: #000000; stroke-width: 0.8"/>
      </g>
     </g>
     <g id="text_8">
      <!-- 1998 -->
      <g transform="translate(147.080842 298.105312) rotate(-90) scale(0.07 -0.07)">
       <defs>
        <path id="DejaVuSans-38" d="M 2034 2216 
Q 1584 2216 1326 1975 
Q 1069 1734 1069 1313 
Q 1069 891 1326 650 
Q 1584 409 2034 409 
Q 2484 409 2743 651 
Q 3003 894 3003 1313 
Q 3003 1734 2745 1975 
Q 2488 2216 2034 2216 
z
M 1403 2484 
Q 997 2584 770 2862 
Q 544 3141 544 3541 
Q 544 4100 942 4425 
Q 1341 4750 2034 4750 
Q 2731 4750 3128 4425 
Q 3525 4100 3525 3541 
Q 3525 3141 3298 2862 
Q 3072 2584 2669 2484 
Q 3125 2378 3379 2068 
Q 3634 1759 3634 1313 
Q 3634 634 3220 271 
Q 2806 -91 2034 -91 
Q 1263 -91 848 271 
Q 434 634 434 1313 
Q 434 1759 690 2068 
Q 947 2378 1403 2484 
z
M 1172 3481 
Q 1172 3119 1398 2916 
Q 1625 2713 2034 2713 
Q 2441 2713 2670 2916 
Q 2900 3119 2900 3481 
Q 2900 3844 2670 4047 
Q 2441 4250 2034 4250 
Q 1625 4250 1398 4047 
Q 1172 3844 1172 3481 
z
" transform="scale(0.015625)"/>
       </defs>
       <use xlink:href="#DejaVuSans-31"/>
       <use xlink:href="#DejaVuSans-39" x="63.623047"/>
       <use xlink:href="#DejaVuSans-39" x="127.246094"/>
       <use xlink:href="#DejaVuSans-38" x="190.869141"/>
      </g>
     </g>
    </g>
    <g id="xtick_9">
     <g id="line2d_9">
      <g>
       <use xlink:href="#mcec34e516d" x="157.815129" y="273.290312" style="stroke: #000000; stroke-width: 0.8"/>
      </g>
     </g>
     <g id="text_9">
      <!-- 1999 -->
      <g transform="translate(159.746691 298.105312) rotate(-90) scale(0.07 -0.07)">
       <use xlink:href="#DejaVuSans-31"/>
       <use xlink:href="#DejaVuSans-39" x="63.623047"/>
       <use xlink:href="#DejaVuSans-39" x="127.246094"/>
       <use xlink:href="#DejaVuSans-39" x="190.869141"/>
      </g>
     </g>
    </g>
    <g id="xtick_10">
     <g id="line2d_10">
      <g>
       <use xlink:href="#mcec34e516d" x="170.480978" y="273.290312" style="stroke: #000000; stroke-width: 0.8"/>
      </g>
     </g>
     <g id="text_10">
      <!-- 2000 -->
      <g transform="translate(172.41254 298.105312) rotate(-90) scale(0.07 -0.07)">
       <defs>
        <path id="DejaVuSans-30" d="M 2034 4250 
Q 1547 4250 1301 3770 
Q 1056 3291 1056 2328 
Q 1056 1369 1301 889 
Q 1547 409 2034 409 
Q 2525 409 2770 889 
Q 3016 1369 3016 2328 
Q 3016 3291 2770 3770 
Q 2525 4250 2034 4250 
z
M 2034 4750 
Q 2819 4750 3233 4129 
Q 3647 3509 3647 2328 
Q 3647 1150 3233 529 
Q 2819 -91 2034 -91 
Q 1250 -91 836 529 
Q 422 1150 422 2328 
Q 422 3509 836 4129 
Q 1250 4750 2034 4750 
z
" transform="scale(0.015625)"/>
       </defs>
       <use xlink:href="#DejaVuSans-32"/>
       <use xlink:href="#DejaVuSans-30" x="63.623047"/>
       <use xlink:href="#DejaVuSans-30" x="127.246094"/>
       <use xlink:href="#DejaVuSans-30" x="190.869141"/>
      </g>
     </g>
    </g>
    <g id="xtick_11">
     <g id="line2d_11">
      <g>
       <use xlink:href="#mcec34e516d" x="183.146826" y="273.290312" style="stroke: #000000; stroke-width: 0.8"/>
      </g>
     </g>
     <g id="text_11">
      <!-- 2001 -->
      <g transform="translate(185.078389 298.105312) rotate(-90) scale(0.07 -0.07)">
       <use xlink:href="#DejaVuSans-32"/>
       <use xlink:href="#DejaVuSans-30" x="63.623047"/>
       <use xlink:href="#DejaVuSans-30" x="127.246094"/>
       <use xlink:href="#DejaVuSans-31" x="190.869141"/>
      </g>
     </g>
    </g>
    <g id="xtick_12">
     <g id="line2d_12">
      <g>
       <use xlink:href="#mcec34e516d" x="195.812675" y="273.290312" style="stroke: #000000; stroke-width: 0.8"/>
      </g>
     </g>
     <g id="text_12">
      <!-- 2002 -->
      <g transform="translate(197.744238 298.105312) rotate(-90) scale(0.07 -0.07)">
       <use xlink:href="#DejaVuSans-32"/>
       <use xlink:href="#DejaVuSans-30" x="63.623047"/>
       <use xlink:href="#DejaVuSans-30" x="127.246094"/>
       <use xlink:href="#DejaVuSans-32" x="190.869141"/>
      </g>
     </g>
    </g>
    <g id="xtick_13">
     <g id="line2d_13">
      <g>
       <use xlink:href="#mcec34e516d" x="208.478524" y="273.290312" style="stroke: #000000; stroke-width: 0.8"/>
      </g>
     </g>
     <g id="text_13">
      <!-- 2003 -->
      <g transform="translate(210.410087 298.105312) rotate(-90) scale(0.07 -0.07)">
       <use xlink:href="#DejaVuSans-32"/>
       <use xlink:href="#DejaVuSans-30" x="63.623047"/>
       <use xlink:href="#DejaVuSans-30" x="127.246094"/>
       <use xlink:href="#DejaVuSans-33" x="190.869141"/>
      </g>
     </g>
    </g>
    <g id="xtick_14">
     <g id="line2d_14">
      <g>
       <use xlink:href="#mcec34e516d" x="221.144373" y="273.290312" style="stroke: #000000; stroke-width: 0.8"/>
      </g>
     </g>
     <g id="text_14">
      <!-- 2004 -->
      <g transform="translate(223.075935 298.105312) rotate(-90) scale(0.07 -0.07)">
       <use xlink:href="#DejaVuSans-32"/>
       <use xlink:href="#DejaVuSans-30" x="63.623047"/>
       <use xlink:href="#DejaVuSans-30" x="127.246094"/>
       <use xlink:href="#DejaVuSans-34" x="190.869141"/>
      </g>
     </g>
    </g>
    <g id="xtick_15">
     <g id="line2d_15">
      <g>
       <use xlink:href="#mcec34e516d" x="233.810222" y="273.290312" style="stroke: #000000; stroke-width: 0.8"/>
      </g>
     </g>
     <g id="text_15">
      <!-- 2005 -->
      <g transform="translate(235.741784 298.105312) rotate(-90) scale(0.07 -0.07)">
       <use xlink:href="#DejaVuSans-32"/>
       <use xlink:href="#DejaVuSans-30" x="63.623047"/>
       <use xlink:href="#DejaVuSans-30" x="127.246094"/>
       <use xlink:href="#DejaVuSans-35" x="190.869141"/>
      </g>
     </g>
    </g>
    <g id="xtick_16">
     <g id="line2d_16">
      <g>
       <use xlink:href="#mcec34e516d" x="246.476071" y="273.290312" style="stroke: #000000; stroke-width: 0.8"/>
      </g>
     </g>
     <g id="text_16">
      <!-- 2006 -->
      <g transform="translate(248.407633 298.105312) rotate(-90) scale(0.07 -0.07)">
       <use xlink:href="#DejaVuSans-32"/>
       <use xlink:href="#DejaVuSans-30" x="63.623047"/>
       <use xlink:href="#DejaVuSans-30" x="127.246094"/>
       <use xlink:href="#DejaVuSans-36" x="190.869141"/>
      </g>
     </g>
    </g>
    <g id="xtick_17">
     <g id="line2d_17">
      <g>
       <use xlink:href="#mcec34e516d" x="259.141919" y="273.290312" style="stroke: #000000; stroke-width: 0.8"/>
      </g>
     </g>
     <g id="text_17">
      <!-- 2007 -->
      <g transform="translate(261.073482 298.105312) rotate(-90) scale(0.07 -0.07)">
       <use xlink:href="#DejaVuSans-32"/>
       <use xlink:href="#DejaVuSans-30" x="63.623047"/>
       <use xlink:href="#DejaVuSans-30" x="127.246094"/>
       <use xlink:href="#DejaVuSans-37" x="190.869141"/>
      </g>
     </g>
    </g>
    <g id="xtick_18">
     <g id="line2d_18">
      <g>
       <use xlink:href="#mcec34e516d" x="271.807768" y="273.290312" style="stroke: #000000; stroke-width: 0.8"/>
      </g>
     </g>
     <g id="text_18">
      <!-- 2008 -->
      <g transform="translate(273.739331 298.105312) rotate(-90) scale(0.07 -0.07)">
       <use xlink:href="#DejaVuSans-32"/>
       <use xlink:href="#DejaVuSans-30" x="63.623047"/>
       <use xlink:href="#DejaVuSans-30" x="127.246094"/>
       <use xlink:href="#DejaVuSans-38" x="190.869141"/>
      </g>
     </g>
    </g>
    <g id="xtick_19">
     <g id="line2d_19">
      <g>
       <use xlink:href="#mcec34e516d" x="284.473617" y="273.290312" style="stroke: #000000; stroke-width: 0.8"/>
      </g>
     </g>
     <g id="text_19">
      <!-- 2009 -->
      <g transform="translate(286.405179 298.105312) rotate(-90) scale(0.07 -0.07)">
       <use xlink:href="#DejaVuSans-32"/>
       <use xlink:href="#DejaVuSans-30" x="63.623047"/>
       <use xlink:href="#DejaVuSans-30" x="127.246094"/>
       <use xlink:href="#DejaVuSans-39" x="190.869141"/>
      </g>
     </g>
    </g>
    <g id="xtick_20">
     <g id="line2d_20">
      <g>
       <use xlink:href="#mcec34e516d" x="297.139466" y="273.290312" style="stroke: #000000; stroke-width: 0.8"/>
      </g>
     </g>
     <g id="text_20">
      <!-- 2010 -->
      <g transform="translate(299.071028 298.105312) rotate(-90) scale(0.07 -0.07)">
       <use xlink:href="#DejaVuSans-32"/>
       <use xlink:href="#DejaVuSans-30" x="63.623047"/>
       <use xlink:href="#DejaVuSans-31" x="127.246094"/>
       <use xlink:href="#DejaVuSans-30" x="190.869141"/>
      </g>
     </g>
    </g>
    <g id="xtick_21">
     <g id="line2d_21">
      <g>
       <use xlink:href="#mcec34e516d" x="309.805315" y="273.290312" style="stroke: #000000; stroke-width: 0.8"/>
      </g>
     </g>
     <g id="text_21">
      <!-- 2011 -->
      <g transform="translate(311.736877 298.105312) rotate(-90) scale(0.07 -0.07)">
       <use xlink:href="#DejaVuSans-32"/>
       <use xlink:href="#DejaVuSans-30" x="63.623047"/>
       <use xlink:href="#DejaVuSans-31" x="127.246094"/>
       <use xlink:href="#DejaVuSans-31" x="190.869141"/>
      </g>
     </g>
    </g>
    <g id="xtick_22">
     <g id="line2d_22">
      <g>
       <use xlink:href="#mcec34e516d" x="322.471163" y="273.290312" style="stroke: #000000; stroke-width: 0.8"/>
      </g>
     </g>
     <g id="text_22">
      <!-- 2012 -->
      <g transform="translate(324.402726 298.105312) rotate(-90) scale(0.07 -0.07)">
       <use xlink:href="#DejaVuSans-32"/>
       <use xlink:href="#DejaVuSans-30" x="63.623047"/>
       <use xlink:href="#DejaVuSans-31" x="127.246094"/>
       <use xlink:href="#DejaVuSans-32" x="190.869141"/>
      </g>
     </g>
    </g>
    <g id="xtick_23">
     <g id="line2d_23">
      <g>
       <use xlink:href="#mcec34e516d" x="335.137012" y="273.290312" style="stroke: #000000; stroke-width: 0.8"/>
      </g>
     </g>
     <g id="text_23">
      <!-- 2013 -->
      <g transform="translate(337.068575 298.105312) rotate(-90) scale(0.07 -0.07)">
       <use xlink:href="#DejaVuSans-32"/>
       <use xlink:href="#DejaVuSans-30" x="63.623047"/>
       <use xlink:href="#DejaVuSans-31" x="127.246094"/>
       <use xlink:href="#DejaVuSans-33" x="190.869141"/>
      </g>
     </g>
    </g>
    <g id="xtick_24">
     <g id="line2d_24">
      <g>
       <use xlink:href="#mcec34e516d" x="347.802861" y="273.290312" style="stroke: #000000; stroke-width: 0.8"/>
      </g>
     </g>
     <g id="text_24">
      <!-- 2014 -->
      <g transform="translate(349.734424 298.105312) rotate(-90) scale(0.07 -0.07)">
       <use xlink:href="#DejaVuSans-32"/>
       <use xlink:href="#DejaVuSans-30" x="63.623047"/>
       <use xlink:href="#DejaVuSans-31" x="127.246094"/>
       <use xlink:href="#DejaVuSans-34" x="190.869141"/>
      </g>
     </g>
    </g>
    <g id="xtick_25">
     <g id="line2d_25">
      <g>
       <use xlink:href="#mcec34e516d" x="360.46871" y="273.290312" style="stroke: #000000; stroke-width: 0.8"/>
      </g>
     </g>
     <g id="text_25">
      <!-- 2015 -->
      <g transform="translate(362.400272 298.105312) rotate(-90) scale(0.07 -0.07)">
       <use xlink:href="#DejaVuSans-32"/>
       <use xlink:href="#DejaVuSans-30" x="63.623047"/>
       <use xlink:href="#DejaVuSans-31" x="127.246094"/>
       <use xlink:href="#DejaVuSans-35" x="190.869141"/>
      </g>
     </g>
    </g>
    <g id="xtick_26">
     <g id="line2d_26">
      <g>
       <use xlink:href="#mcec34e516d" x="373.134559" y="273.290312" style="stroke: #000000; stroke-width: 0.8"/>
      </g>
     </g>
     <g id="text_26">
      <!-- 2016 -->
      <g transform="translate(375.066121 298.105312) rotate(-90) scale(0.07 -0.07)">
       <use xlink:href="#DejaVuSans-32"/>
       <use xlink:href="#DejaVuSans-30" x="63.623047"/>
       <use xlink:href="#DejaVuSans-31" x="127.246094"/>
       <use xlink:href="#DejaVuSans-36" x="190.869141"/>
      </g>
     </g>
    </g>
    <g id="xtick_27">
     <g id="line2d_27">
      <g>
       <use xlink:href="#mcec34e516d" x="385.800408" y="273.290312" style="stroke: #000000; stroke-width: 0.8"/>
      </g>
     </g>
     <g id="text_27">
      <!-- 2017 -->
      <g transform="translate(387.73197 298.105312) rotate(-90) scale(0.07 -0.07)">
       <use xlink:href="#DejaVuSans-32"/>
       <use xlink:href="#DejaVuSans-30" x="63.623047"/>
       <use xlink:href="#DejaVuSans-31" x="127.246094"/>
       <use xlink:href="#DejaVuSans-37" x="190.869141"/>
      </g>
     </g>
    </g>
    <g id="xtick_28">
     <g id="line2d_28">
      <g>
       <use xlink:href="#mcec34e516d" x="398.466256" y="273.290312" style="stroke: #000000; stroke-width: 0.8"/>
      </g>
     </g>
     <g id="text_28">
      <!-- 2018 -->
      <g transform="translate(400.397819 298.105312) rotate(-90) scale(0.07 -0.07)">
       <use xlink:href="#DejaVuSans-32"/>
       <use xlink:href="#DejaVuSans-30" x="63.623047"/>
       <use xlink:href="#DejaVuSans-31" x="127.246094"/>
       <use xlink:href="#DejaVuSans-38" x="190.869141"/>
      </g>
     </g>
    </g>
    <g id="xtick_29">
     <g id="line2d_29">
      <g>
       <use xlink:href="#mcec34e516d" x="411.132105" y="273.290312" style="stroke: #000000; stroke-width: 0.8"/>
      </g>
     </g>
     <g id="text_29">
      <!-- 2019 -->
      <g transform="translate(413.063668 298.105312) rotate(-90) scale(0.07 -0.07)">
       <use xlink:href="#DejaVuSans-32"/>
       <use xlink:href="#DejaVuSans-30" x="63.623047"/>
       <use xlink:href="#DejaVuSans-31" x="127.246094"/>
       <use xlink:href="#DejaVuSans-39" x="190.869141"/>
      </g>
     </g>
    </g>
    <g id="xtick_30">
     <g id="line2d_30">
      <g>
       <use xlink:href="#mcec34e516d" x="423.797954" y="273.290312" style="stroke: #000000; stroke-width: 0.8"/>
      </g>
     </g>
     <g id="text_30">
      <!-- 2020 -->
      <g transform="translate(425.729517 298.105312) rotate(-90) scale(0.07 -0.07)">
       <use xlink:href="#DejaVuSans-32"/>
       <use xlink:href="#DejaVuSans-30" x="63.623047"/>
       <use xlink:href="#DejaVuSans-32" x="127.246094"/>
       <use xlink:href="#DejaVuSans-30" x="190.869141"/>
      </g>
     </g>
    </g>
    <g id="xtick_31">
     <g id="line2d_31">
      <g>
       <use xlink:href="#mcec34e516d" x="436.463803" y="273.290312" style="stroke: #000000; stroke-width: 0.8"/>
      </g>
     </g>
     <g id="text_31">
      <!-- 2021 -->
      <g transform="translate(438.395365 298.105312) rotate(-90) scale(0.07 -0.07)">
       <use xlink:href="#DejaVuSans-32"/>
       <use xlink:href="#DejaVuSans-30" x="63.623047"/>
       <use xlink:href="#DejaVuSans-32" x="127.246094"/>
       <use xlink:href="#DejaVuSans-31" x="190.869141"/>
      </g>
     </g>
    </g>
    <g id="xtick_32">
     <g id="line2d_32">
      <g>
       <use xlink:href="#mcec34e516d" x="449.129652" y="273.290312" style="stroke: #000000; stroke-width: 0.8"/>
      </g>
     </g>
     <g id="text_32">
      <!-- 2022 -->
      <g transform="translate(451.061214 298.105312) rotate(-90) scale(0.07 -0.07)">
       <use xlink:href="#DejaVuSans-32"/>
       <use xlink:href="#DejaVuSans-30" x="63.623047"/>
       <use xlink:href="#DejaVuSans-32" x="127.246094"/>
       <use xlink:href="#DejaVuSans-32" x="190.869141"/>
      </g>
     </g>
    </g>
    <g id="xtick_33">
     <g id="line2d_33">
      <g>
       <use xlink:href="#mcec34e516d" x="461.795501" y="273.290312" style="stroke: #000000; stroke-width: 0.8"/>
      </g>
     </g>
     <g id="text_33">
      <!-- 2023 -->
      <g transform="translate(463.727063 298.105312) rotate(-90) scale(0.07 -0.07)">
       <use xlink:href="#DejaVuSans-32"/>
       <use xlink:href="#DejaVuSans-30" x="63.623047"/>
       <use xlink:href="#DejaVuSans-32" x="127.246094"/>
       <use xlink:href="#DejaVuSans-33" x="190.869141"/>
      </g>
     </g>
    </g>
    <g id="xtick_34">
     <g id="line2d_34">
      <g>
       <use xlink:href="#mcec34e516d" x="474.461349" y="273.290312" style="stroke: #000000; stroke-width: 0.8"/>
      </g>
     </g>
     <g id="text_34">
      <!-- 2024 -->
      <g transform="translate(476.392912 298.105312) rotate(-90) scale(0.07 -0.07)">
       <use xlink:href="#DejaVuSans-32"/>
       <use xlink:href="#DejaVuSans-30" x="63.623047"/>
       <use xlink:href="#DejaVuSans-32" x="127.246094"/>
       <use xlink:href="#DejaVuSans-34" x="190.869141"/>
      </g>
     </g>
    </g>
    <g id="text_35">
     <!-- Year -->
     <g transform="translate(258.063594 307.424219) scale(0.07 -0.07)">
      <defs>
       <path id="DejaVuSans-59" d="M -13 4666 
L 666 4666 
L 1959 2747 
L 3244 4666 
L 3922 4666 
L 2272 2222 
L 2272 0 
L 1638 0 
L 1638 2222 
L -13 4666 
z
" transform="scale(0.015625)"/>
       <path id="DejaVuSans-65" d="M 3597 1894 
L 3597 1613 
L 953 1613 
Q 991 1019 1311 708 
Q 1631 397 2203 397 
Q 2534 397 2845 478 
Q 3156 559 3463 722 
L 3463 178 
Q 3153 47 2828 -22 
Q 2503 -91 2169 -91 
Q 1331 -91 842 396 
Q 353 884 353 1716 
Q 353 2575 817 3079 
Q 1281 3584 2069 3584 
Q 2775 3584 3186 3129 
Q 3597 2675 3597 1894 
z
M 3022 2063 
Q 3016 2534 2758 2815 
Q 2500 3097 2075 3097 
Q 1594 3097 1305 2825 
Q 1016 2553 972 2059 
L 3022 2063 
z
" transform="scale(0.015625)"/>
       <path id="DejaVuSans-61" d="M 2194 1759 
Q 1497 1759 1228 1600 
Q 959 1441 959 1056 
Q 959 750 1161 570 
Q 1363 391 1709 391 
Q 2188 391 2477 730 
Q 2766 1069 2766 1631 
L 2766 1759 
L 2194 1759 
z
M 3341 1997 
L 3341 0 
L 2766 0 
L 2766 531 
Q 2569 213 2275 61 
Q 1981 -91 1556 -91 
Q 1019 -91 701 211 
Q 384 513 384 1019 
Q 384 1609 779 1909 
Q 1175 2209 1959 2209 
L 2766 2209 
L 2766 2266 
Q 2766 2663 2505 2880 
Q 2244 3097 1772 3097 
Q 1472 3097 1187 3025 
Q 903 2953 641 2809 
L 641 3341 
Q 956 3463 1253 3523 
Q 1550 3584 1831 3584 
Q 2591 3584 2966 3190 
Q 3341 2797 3341 1997 
z
" transform="scale(0.015625)"/>
       <path id="DejaVuSans-72" d="M 2631 2963 
Q 2534 3019 2420 3045 
Q 2306 3072 2169 3072 
Q 1681 3072 1420 2755 
Q 1159 2438 1159 1844 
L 1159 0 
L 581 0 
L 581 3500 
L 1159 3500 
L 1159 2956 
Q 1341 3275 1631 3429 
Q 1922 3584 2338 3584 
Q 2397 3584 2469 3576 
Q 2541 3569 2628 3553 
L 2631 2963 
z
" transform="scale(0.015625)"/>
      </defs>
      <use xlink:href="#DejaVuSans-59"/>
      <use xlink:href="#DejaVuSans-65" x="47.833984"/>
      <use xlink:href="#DejaVuSans-61" x="109.357422"/>
      <use xlink:href="#DejaVuSans-72" x="170.636719"/>
     </g>
    </g>
   </g>
   <g id="matplotlib.axis_2">
    <g id="ytick_1">
     <g id="line2d_35">
      <defs>
       <path id="m009176f93e" d="M 0 0 
L -3.5 0 
" style="stroke: #000000; stroke-width: 0.8"/>
      </defs>
      <g>
       <use xlink:href="#m009176f93e" x="35.589688" y="261.439605" style="stroke: #000000; stroke-width: 0.8"/>
      </g>
     </g>
     <g id="text_36">
      <!-- 0 -->
      <g transform="translate(24.135938 264.099058) scale(0.07 -0.07)">
       <use xlink:href="#DejaVuSans-30"/>
      </g>
     </g>
    </g>
    <g id="ytick_2">
     <g id="line2d_36">
      <g>
       <use xlink:href="#m009176f93e" x="35.589688" y="230.702455" style="stroke: #000000; stroke-width: 0.8"/>
      </g>
     </g>
     <g id="text_37">
      <!-- 200 -->
      <g transform="translate(15.228438 233.361908) scale(0.07 -0.07)">
       <use xlink:href="#DejaVuSans-32"/>
       <use xlink:href="#DejaVuSans-30" x="63.623047"/>
       <use xlink:href="#DejaVuSans-30" x="127.246094"/>
      </g>
     </g>
    </g>
    <g id="ytick_3">
     <g id="line2d_37">
      <g>
       <use xlink:href="#m009176f93e" x="35.589688" y="199.965306" style="stroke: #000000; stroke-width: 0.8"/>
      </g>
     </g>
     <g id="text_38">
      <!-- 400 -->
      <g transform="translate(15.228438 202.624759) scale(0.07 -0.07)">
       <use xlink:href="#DejaVuSans-34"/>
       <use xlink:href="#DejaVuSans-30" x="63.623047"/>
       <use xlink:href="#DejaVuSans-30" x="127.246094"/>
      </g>
     </g>
    </g>
    <g id="ytick_4">
     <g id="line2d_38">
      <g>
       <use xlink:href="#m009176f93e" x="35.589688" y="169.228157" style="stroke: #000000; stroke-width: 0.8"/>
      </g>
     </g>
     <g id="text_39">
      <!-- 600 -->
      <g transform="translate(15.228438 171.88761) scale(0.07 -0.07)">
       <use xlink:href="#DejaVuSans-36"/>
       <use xlink:href="#DejaVuSans-30" x="63.623047"/>
       <use xlink:href="#DejaVuSans-30" x="127.246094"/>
      </g>
     </g>
    </g>
    <g id="ytick_5">
     <g id="line2d_39">
      <g>
       <use xlink:href="#m009176f93e" x="35.589688" y="138.491007" style="stroke: #000000; stroke-width: 0.8"/>
      </g>
     </g>
     <g id="text_40">
      <!-- 800 -->
      <g transform="translate(15.228438 141.15046) scale(0.07 -0.07)">
       <use xlink:href="#DejaVuSans-38"/>
       <use xlink:href="#DejaVuSans-30" x="63.623047"/>
       <use xlink:href="#DejaVuSans-30" x="127.246094"/>
      </g>
     </g>
    </g>
    <g id="ytick_6">
     <g id="line2d_40">
      <g>
       <use xlink:href="#m009176f93e" x="35.589688" y="107.753858" style="stroke: #000000; stroke-width: 0.8"/>
      </g>
     </g>
     <g id="text_41">
      <!-- 1000 -->
      <g transform="translate(10.774688 110.413311) scale(0.07 -0.07)">
       <use xlink:href="#DejaVuSans-31"/>
       <use xlink:href="#DejaVuSans-30" x="63.623047"/>
       <use xlink:href="#DejaVuSans-30" x="127.246094"/>
       <use xlink:href="#DejaVuSans-30" x="190.869141"/>
      </g>
     </g>
    </g>
    <g id="ytick_7">
     <g id="line2d_41">
      <g>
       <use xlink:href="#m009176f93e" x="35.589688" y="77.016709" style="stroke: #000000; stroke-width: 0.8"/>
      </g>
     </g>
     <g id="text_42">
      <!-- 1200 -->
      <g transform="translate(10.774688 79.676162) scale(0.07 -0.07)">
       <use xlink:href="#DejaVuSans-31"/>
       <use xlink:href="#DejaVuSans-32" x="63.623047"/>
       <use xlink:href="#DejaVuSans-30" x="127.246094"/>
       <use xlink:href="#DejaVuSans-30" x="190.869141"/>
      </g>
     </g>
    </g>
    <g id="ytick_8">
     <g id="line2d_42">
      <g>
       <use xlink:href="#m009176f93e" x="35.589688" y="46.279559" style="stroke: #000000; stroke-width: 0.8"/>
      </g>
     </g>
     <g id="text_43">
      <!-- 1400 -->
      <g transform="translate(10.774688 48.939013) scale(0.07 -0.07)">
       <use xlink:href="#DejaVuSans-31"/>
       <use xlink:href="#DejaVuSans-34" x="63.623047"/>
       <use xlink:href="#DejaVuSans-30" x="127.246094"/>
       <use xlink:href="#DejaVuSans-30" x="190.869141"/>
      </g>
     </g>
    </g>
    <g id="ytick_9">
     <g id="line2d_43">
      <g>
       <use xlink:href="#m009176f93e" x="35.589688" y="15.54241" style="stroke: #000000; stroke-width: 0.8"/>
      </g>
     </g>
     <g id="text_44">
      <!-- 1600 -->
      <g transform="translate(10.774688 18.201863) scale(0.07 -0.07)">
       <use xlink:href="#DejaVuSans-31"/>
       <use xlink:href="#DejaVuSans-36" x="63.623047"/>
       <use xlink:href="#DejaVuSans-30" x="127.246094"/>
       <use xlink:href="#DejaVuSans-30" x="190.869141"/>
      </g>
     </g>
    </g>
    <g id="text_45">
     <!-- Cumulative number of protein designs -->
     <g transform="translate(5.318906 209.638047) rotate(-90) scale(0.07 -0.07)">
      <defs>
       <path id="DejaVuSans-43" d="M 4122 4306 
L 4122 3641 
Q 3803 3938 3442 4084 
Q 3081 4231 2675 4231 
Q 1875 4231 1450 3742 
Q 1025 3253 1025 2328 
Q 1025 1406 1450 917 
Q 1875 428 2675 428 
Q 3081 428 3442 575 
Q 3803 722 4122 1019 
L 4122 359 
Q 3791 134 3420 21 
Q 3050 -91 2638 -91 
Q 1578 -91 968 557 
Q 359 1206 359 2328 
Q 359 3453 968 4101 
Q 1578 4750 2638 4750 
Q 3056 4750 3426 4639 
Q 3797 4528 4122 4306 
z
" transform="scale(0.015625)"/>
       <path id="DejaVuSans-75" d="M 544 1381 
L 544 3500 
L 1119 3500 
L 1119 1403 
Q 1119 906 1312 657 
Q 1506 409 1894 409 
Q 2359 409 2629 706 
Q 2900 1003 2900 1516 
L 2900 3500 
L 3475 3500 
L 3475 0 
L 2900 0 
L 2900 538 
Q 2691 219 2414 64 
Q 2138 -91 1772 -91 
Q 1169 -91 856 284 
Q 544 659 544 1381 
z
M 1991 3584 
L 1991 3584 
z
" transform="scale(0.015625)"/>
       <path id="DejaVuSans-6d" d="M 3328 2828 
Q 3544 3216 3844 3400 
Q 4144 3584 4550 3584 
Q 5097 3584 5394 3201 
Q 5691 2819 5691 2113 
L 5691 0 
L 5113 0 
L 5113 2094 
Q 5113 2597 4934 2840 
Q 4756 3084 4391 3084 
Q 3944 3084 3684 2787 
Q 3425 2491 3425 1978 
L 3425 0 
L 2847 0 
L 2847 2094 
Q 2847 2600 2669 2842 
Q 2491 3084 2119 3084 
Q 1678 3084 1418 2786 
Q 1159 2488 1159 1978 
L 1159 0 
L 581 0 
L 581 3500 
L 1159 3500 
L 1159 2956 
Q 1356 3278 1631 3431 
Q 1906 3584 2284 3584 
Q 2666 3584 2933 3390 
Q 3200 3197 3328 2828 
z
" transform="scale(0.015625)"/>
       <path id="DejaVuSans-6c" d="M 603 4863 
L 1178 4863 
L 1178 0 
L 603 0 
L 603 4863 
z
" transform="scale(0.015625)"/>
       <path id="DejaVuSans-74" d="M 1172 4494 
L 1172 3500 
L 2356 3500 
L 2356 3053 
L 1172 3053 
L 1172 1153 
Q 1172 725 1289 603 
Q 1406 481 1766 481 
L 2356 481 
L 2356 0 
L 1766 0 
Q 1100 0 847 248 
Q 594 497 594 1153 
L 594 3053 
L 172 3053 
L 172 3500 
L 594 3500 
L 594 4494 
L 1172 4494 
z
" transform="scale(0.015625)"/>
       <path id="DejaVuSans-69" d="M 603 3500 
L 1178 3500 
L 1178 0 
L 603 0 
L 603 3500 
z
M 603 4863 
L 1178 4863 
L 1178 4134 
L 603 4134 
L 603 4863 
z
" transform="scale(0.015625)"/>
       <path id="DejaVuSans-76" d="M 191 3500 
L 800 3500 
L 1894 563 
L 2988 3500 
L 3597 3500 
L 2284 0 
L 1503 0 
L 191 3500 
z
" transform="scale(0.015625)"/>
       <path id="DejaVuSans-20" transform="scale(0.015625)"/>
       <path id="DejaVuSans-6e" d="M 3513 2113 
L 3513 0 
L 2938 0 
L 2938 2094 
Q 2938 2591 2744 2837 
Q 2550 3084 2163 3084 
Q 1697 3084 1428 2787 
Q 1159 2491 1159 1978 
L 1159 0 
L 581 0 
L 581 3500 
L 1159 3500 
L 1159 2956 
Q 1366 3272 1645 3428 
Q 1925 3584 2291 3584 
Q 2894 3584 3203 3211 
Q 3513 2838 3513 2113 
z
" transform="scale(0.015625)"/>
       <path id="DejaVuSans-62" d="M 3116 1747 
Q 3116 2381 2855 2742 
Q 2594 3103 2138 3103 
Q 1681 3103 1420 2742 
Q 1159 2381 1159 1747 
Q 1159 1113 1420 752 
Q 1681 391 2138 391 
Q 2594 391 2855 752 
Q 3116 1113 3116 1747 
z
M 1159 2969 
Q 1341 3281 1617 3432 
Q 1894 3584 2278 3584 
Q 2916 3584 3314 3078 
Q 3713 2572 3713 1747 
Q 3713 922 3314 415 
Q 2916 -91 2278 -91 
Q 1894 -91 1617 61 
Q 1341 213 1159 525 
L 1159 0 
L 581 0 
L 581 4863 
L 1159 4863 
L 1159 2969 
z
" transform="scale(0.015625)"/>
       <path id="DejaVuSans-6f" d="M 1959 3097 
Q 1497 3097 1228 2736 
Q 959 2375 959 1747 
Q 959 1119 1226 758 
Q 1494 397 1959 397 
Q 2419 397 2687 759 
Q 2956 1122 2956 1747 
Q 2956 2369 2687 2733 
Q 2419 3097 1959 3097 
z
M 1959 3584 
Q 2709 3584 3137 3096 
Q 3566 2609 3566 1747 
Q 3566 888 3137 398 
Q 2709 -91 1959 -91 
Q 1206 -91 779 398 
Q 353 888 353 1747 
Q 353 2609 779 3096 
Q 1206 3584 1959 3584 
z
" transform="scale(0.015625)"/>
       <path id="DejaVuSans-66" d="M 2375 4863 
L 2375 4384 
L 1825 4384 
Q 1516 4384 1395 4259 
Q 1275 4134 1275 3809 
L 1275 3500 
L 2222 3500 
L 2222 3053 
L 1275 3053 
L 1275 0 
L 697 0 
L 697 3053 
L 147 3053 
L 147 3500 
L 697 3500 
L 697 3744 
Q 697 4328 969 4595 
Q 1241 4863 1831 4863 
L 2375 4863 
z
" transform="scale(0.015625)"/>
       <path id="DejaVuSans-70" d="M 1159 525 
L 1159 -1331 
L 581 -1331 
L 581 3500 
L 1159 3500 
L 1159 2969 
Q 1341 3281 1617 3432 
Q 1894 3584 2278 3584 
Q 2916 3584 3314 3078 
Q 3713 2572 3713 1747 
Q 3713 922 3314 415 
Q 2916 -91 2278 -91 
Q 1894 -91 1617 61 
Q 1341 213 1159 525 
z
M 3116 1747 
Q 3116 2381 2855 2742 
Q 2594 3103 2138 3103 
Q 1681 3103 1420 2742 
Q 1159 2381 1159 1747 
Q 1159 1113 1420 752 
Q 1681 391 2138 391 
Q 2594 391 2855 752 
Q 3116 1113 3116 1747 
z
" transform="scale(0.015625)"/>
       <path id="DejaVuSans-64" d="M 2906 2969 
L 2906 4863 
L 3481 4863 
L 3481 0 
L 2906 0 
L 2906 525 
Q 2725 213 2448 61 
Q 2172 -91 1784 -91 
Q 1150 -91 751 415 
Q 353 922 353 1747 
Q 353 2572 751 3078 
Q 1150 3584 1784 3584 
Q 2172 3584 2448 3432 
Q 2725 3281 2906 2969 
z
M 947 1747 
Q 947 1113 1208 752 
Q 1469 391 1925 391 
Q 2381 391 2643 752 
Q 2906 1113 2906 1747 
Q 2906 2381 2643 2742 
Q 2381 3103 1925 3103 
Q 1469 3103 1208 2742 
Q 947 2381 947 1747 
z
" transform="scale(0.015625)"/>
       <path id="DejaVuSans-73" d="M 2834 3397 
L 2834 2853 
Q 2591 2978 2328 3040 
Q 2066 3103 1784 3103 
Q 1356 3103 1142 2972 
Q 928 2841 928 2578 
Q 928 2378 1081 2264 
Q 1234 2150 1697 2047 
L 1894 2003 
Q 2506 1872 2764 1633 
Q 3022 1394 3022 966 
Q 3022 478 2636 193 
Q 2250 -91 1575 -91 
Q 1294 -91 989 -36 
Q 684 19 347 128 
L 347 722 
Q 666 556 975 473 
Q 1284 391 1588 391 
Q 1994 391 2212 530 
Q 2431 669 2431 922 
Q 2431 1156 2273 1281 
Q 2116 1406 1581 1522 
L 1381 1569 
Q 847 1681 609 1914 
Q 372 2147 372 2553 
Q 372 3047 722 3315 
Q 1072 3584 1716 3584 
Q 2034 3584 2315 3537 
Q 2597 3491 2834 3397 
z
" transform="scale(0.015625)"/>
       <path id="DejaVuSans-67" d="M 2906 1791 
Q 2906 2416 2648 2759 
Q 2391 3103 1925 3103 
Q 1463 3103 1205 2759 
Q 947 2416 947 1791 
Q 947 1169 1205 825 
Q 1463 481 1925 481 
Q 2391 481 2648 825 
Q 2906 1169 2906 1791 
z
M 3481 434 
Q 3481 -459 3084 -895 
Q 2688 -1331 1869 -1331 
Q 1566 -1331 1297 -1286 
Q 1028 -1241 775 -1147 
L 775 -588 
Q 1028 -725 1275 -790 
Q 1522 -856 1778 -856 
Q 2344 -856 2625 -561 
Q 2906 -266 2906 331 
L 2906 616 
Q 2728 306 2450 153 
Q 2172 0 1784 0 
Q 1141 0 747 490 
Q 353 981 353 1791 
Q 353 2603 747 3093 
Q 1141 3584 1784 3584 
Q 2172 3584 2450 3431 
Q 2728 3278 2906 2969 
L 2906 3500 
L 3481 3500 
L 3481 434 
z
" transform="scale(0.015625)"/>
      </defs>
      <use xlink:href="#DejaVuSans-43"/>
      <use xlink:href="#DejaVuSans-75" x="69.824219"/>
      <use xlink:href="#DejaVuSans-6d" x="133.203125"/>
      <use xlink:href="#DejaVuSans-75" x="230.615234"/>
      <use xlink:href="#DejaVuSans-6c" x="293.994141"/>
      <use xlink:href="#DejaVuSans-61" x="321.777344"/>
      <use xlink:href="#DejaVuSans-74" x="383.056641"/>
      <use xlink:href="#DejaVuSans-69" x="422.265625"/>
      <use xlink:href="#DejaVuSans-76" x="450.048828"/>
      <use xlink:href="#DejaVuSans-65" x="509.228516"/>
      <use xlink:href="#DejaVuSans-20" x="570.751953"/>
      <use xlink:href="#DejaVuSans-6e" x="602.539062"/>
      <use xlink:href="#DejaVuSans-75" x="665.917969"/>
      <use xlink:href="#DejaVuSans-6d" x="729.296875"/>
      <use xlink:href="#DejaVuSans-62" x="826.708984"/>
      <use xlink:href="#DejaVuSans-65" x="890.185547"/>
      <use xlink:href="#DejaVuSans-72" x="951.708984"/>
      <use xlink:href="#DejaVuSans-20" x="992.822266"/>
      <use xlink:href="#DejaVuSans-6f" x="1024.609375"/>
      <use xlink:href="#DejaVuSans-66" x="1085.791016"/>
      <use xlink:href="#DejaVuSans-20" x="1120.996094"/>
      <use xlink:href="#DejaVuSans-70" x="1152.783203"/>
      <use xlink:href="#DejaVuSans-72" x="1216.259766"/>
      <use xlink:href="#DejaVuSans-6f" x="1255.123047"/>
      <use xlink:href="#DejaVuSans-74" x="1316.304688"/>
      <use xlink:href="#DejaVuSans-65" x="1355.513672"/>
      <use xlink:href="#DejaVuSans-69" x="1417.037109"/>
      <use xlink:href="#DejaVuSans-6e" x="1444.820312"/>
      <use xlink:href="#DejaVuSans-20" x="1508.199219"/>
      <use xlink:href="#DejaVuSans-64" x="1539.986328"/>
      <use xlink:href="#DejaVuSans-65" x="1603.462891"/>
      <use xlink:href="#DejaVuSans-73" x="1664.986328"/>
      <use xlink:href="#DejaVuSans-69" x="1717.085938"/>
      <use xlink:href="#DejaVuSans-67" x="1744.869141"/>
      <use xlink:href="#DejaVuSans-6e" x="1808.345703"/>
      <use xlink:href="#DejaVuSans-73" x="1871.724609"/>
     </g>
    </g>
   </g>
   <g id="line2d_44">
    <path d="M 132.483431 261.382521 
L 134.146623 261.183196 
L 135.809816 260.98387 
L 137.473008 260.784544 
L 139.1362 260.585218 
L 140.799392 260.385893 
L 142.462585 260.186567 
L 144.125777 259.987241 
L 145.788969 259.787915 
L 147.452161 259.58859 
L 149.115354 259.389264 
L 150.778546 259.189938 
L 152.441738 258.990612 
L 154.104931 258.791286 
L 155.768123 258.591961 
L 157.431315 258.392635 
L 159.094507 258.193309 
L 160.7577 257.993983 
L 162.420892 257.794658 
L 164.084084 257.595332 
L 165.747276 257.396006 
L 167.410469 257.19668 
L 169.073661 256.997355 
L 170.736853 256.798029 
L 172.400046 256.598703 
L 174.063238 256.399377 
L 175.72643 256.200052 
L 177.389622 256.000726 
L 179.052815 255.8014 
L 180.716007 255.602074 
L 182.379199 255.402749 
L 184.042391 255.203423 
L 185.705584 255.004097 
L 187.368776 254.804771 
L 189.031968 254.605446 
L 190.695161 254.40612 
L 192.358353 254.206794 
L 194.021545 254.007468 
L 195.684737 253.808143 
L 197.34793 253.608817 
L 199.011122 253.409491 
L 200.674314 253.210165 
L 202.337506 253.01084 
L 204.000699 252.811514 
L 205.663891 252.612188 
L 207.327083 252.412862 
L 208.990275 252.213537 
L 210.653468 252.014211 
L 212.31666 251.814885 
L 213.979852 251.615559 
L 215.643045 251.416234 
L 217.306237 251.216908 
L 218.969429 251.017582 
L 220.632621 250.818256 
L 222.295814 250.61893 
L 223.959006 250.419605 
L 225.622198 250.220279 
L 227.28539 250.020953 
L 228.948583 249.821627 
L 230.611775 249.622302 
L 232.274967 249.422976 
L 233.93816 249.22365 
L 235.601352 249.024324 
L 237.264544 248.824999 
L 238.927736 248.625673 
L 240.590929 248.426347 
L 242.254121 248.227021 
L 243.917313 248.027696 
L 245.580505 247.82837 
L 247.243698 247.629044 
L 248.90689 247.429718 
L 250.570082 247.230393 
L 252.233275 247.031067 
L 253.896467 246.831741 
L 255.559659 246.632415 
L 257.222851 246.43309 
L 258.886044 246.233764 
L 260.549236 246.034438 
L 262.212428 245.835112 
L 263.87562 245.635787 
L 265.538813 245.436461 
L 267.202005 245.237135 
L 268.865197 245.037809 
L 270.528389 244.838484 
L 272.191582 244.639158 
L 273.854774 244.439832 
L 275.517966 244.240506 
L 277.181159 244.041181 
L 278.844351 243.841855 
L 280.507543 243.642529 
L 282.170735 243.443203 
L 283.833928 243.243877 
L 285.49712 243.044552 
L 287.160312 242.845226 
L 288.823504 242.6459 
L 290.486697 242.446574 
L 292.149889 242.247249 
L 293.813081 242.047923 
L 295.476274 241.848597 
L 297.139466 241.649271 
" clip-path="url(#p1db59cf4d0)" style="fill: none; stroke: #ff7f0e; stroke-width: 2; stroke-linecap: square"/>
   </g>
   <g id="line2d_45">
    <path d="M 309.805315 242.375586 
L 311.084693 241.155273 
L 312.364072 239.934961 
L 313.643451 238.714648 
L 314.922829 237.494335 
L 316.202208 236.274022 
L 317.481587 235.053709 
L 318.760965 233.833397 
L 320.040344 232.613084 
L 321.319723 231.392771 
L 322.599101 230.172458 
L 323.87848 228.952145 
L 325.157859 227.731833 
L 326.437237 226.51152 
L 327.716616 225.291207 
L 328.995995 224.070894 
L 330.275373 222.850581 
L 331.554752 221.630269 
L 332.834131 220.409956 
L 334.113509 219.189643 
L 335.392888 217.96933 
L 336.672267 216.749017 
L 337.951645 215.528704 
L 339.231024 214.308392 
L 340.510403 213.088079 
L 341.789781 211.867766 
L 343.06916 210.647453 
L 344.348539 209.42714 
L 345.627917 208.206828 
L 346.907296 206.986515 
L 348.186675 205.766202 
L 349.466053 204.545889 
L 350.745432 203.325576 
L 352.024811 202.105264 
L 353.304189 200.884951 
L 354.583568 199.664638 
L 355.862947 198.444325 
L 357.142325 197.224012 
L 358.421704 196.0037 
L 359.701083 194.783387 
L 360.980461 193.563074 
L 362.25984 192.342761 
L 363.539219 191.122448 
L 364.818597 189.902135 
L 366.097976 188.681823 
L 367.377355 187.46151 
L 368.656733 186.241197 
L 369.936112 185.020884 
L 371.215491 183.800571 
L 372.494869 182.580259 
L 373.774248 181.359946 
L 375.053627 180.139633 
L 376.333005 178.91932 
L 377.612384 177.699007 
L 378.891763 176.478695 
L 380.171141 175.258382 
L 381.45052 174.038069 
L 382.729899 172.817756 
L 384.009277 171.597443 
L 385.288656 170.37713 
L 386.568035 169.156818 
L 387.847413 167.936505 
L 389.126792 166.716192 
L 390.406171 165.495879 
L 391.68555 164.275566 
L 392.964928 163.055254 
L 394.244307 161.834941 
L 395.523686 160.614628 
L 396.803064 159.394315 
L 398.082443 158.174002 
L 399.361822 156.95369 
L 400.6412 155.733377 
L 401.920579 154.513064 
L 403.199958 153.292751 
L 404.479336 152.072438 
L 405.758715 150.852126 
L 407.038094 149.631813 
L 408.317472 148.4115 
L 409.596851 147.191187 
L 410.87623 145.970874 
L 412.155608 144.750561 
L 413.434987 143.530249 
L 414.714366 142.309936 
L 415.993744 141.089623 
L 417.273123 139.86931 
L 418.552502 138.648997 
L 419.83188 137.428685 
L 421.111259 136.208372 
L 422.390638 134.988059 
L 423.670016 133.767746 
L 424.949395 132.547433 
L 426.228774 131.327121 
L 427.508152 130.106808 
L 428.787531 128.886495 
L 430.06691 127.666182 
L 431.346288 126.445869 
L 432.625667 125.225557 
L 433.905046 124.005244 
L 435.184424 122.784931 
L 436.463803 121.564618 
" clip-path="url(#p1db59cf4d0)" style="fill: none; stroke-dasharray: 12.8,3.2,2,3.2; stroke-dashoffset: 0; stroke: #2ca02c; stroke-width: 2"/>
   </g>
   <g id="line2d_46">
    <path d="M 449.129652 94.229512 
L 449.385528 93.527836 
L 449.641403 92.82616 
L 449.897279 92.124483 
L 450.153155 91.422807 
L 450.40903 90.721131 
L 450.664906 90.019454 
L 450.920782 89.317778 
L 451.176658 88.616102 
L 451.432533 87.914425 
L 451.688409 87.212749 
L 451.944285 86.511073 
L 452.200161 85.809396 
L 452.456036 85.10772 
L 452.711912 84.406044 
L 452.967788 83.704367 
L 453.223664 83.002691 
L 453.479539 82.301015 
L 453.735415 81.599338 
L 453.991291 80.897662 
L 454.247166 80.195986 
L 454.503042 79.494309 
L 454.758918 78.792633 
L 455.014794 78.090957 
L 455.270669 77.38928 
L 455.526545 76.687604 
L 455.782421 75.985928 
L 456.038297 75.284251 
L 456.294172 74.582575 
L 456.550048 73.880899 
L 456.805924 73.179222 
L 457.0618 72.477546 
L 457.317675 71.77587 
L 457.573551 71.074193 
L 457.829427 70.372517 
L 458.085302 69.670841 
L 458.341178 68.969164 
L 458.597054 68.267488 
L 458.85293 67.565812 
L 459.108805 66.864135 
L 459.364681 66.162459 
L 459.620557 65.460782 
L 459.876433 64.759106 
L 460.132308 64.05743 
L 460.388184 63.355753 
L 460.64406 62.654077 
L 460.899936 61.952401 
L 461.155811 61.250724 
L 461.411687 60.549048 
L 461.667563 59.847372 
L 461.923438 59.145695 
L 462.179314 58.444019 
L 462.43519 57.742343 
L 462.691066 57.040666 
L 462.946941 56.33899 
L 463.202817 55.637314 
L 463.458693 54.935637 
L 463.714569 54.233961 
L 463.970444 53.532285 
L 464.22632 52.830608 
L 464.482196 52.128932 
L 464.738072 51.427256 
L 464.993947 50.725579 
L 465.249823 50.023903 
L 465.505699 49.322227 
L 465.761574 48.62055 
L 466.01745 47.918874 
L 466.273326 47.217198 
L 466.529202 46.515521 
L 466.785077 45.813845 
L 467.040953 45.112169 
L 467.296829 44.410492 
L 467.552705 43.708816 
L 467.80858 43.00714 
L 468.064456 42.305463 
L 468.320332 41.603787 
L 468.576208 40.902111 
L 468.832083 40.200434 
L 469.087959 39.498758 
L 469.343835 38.797082 
L 469.59971 38.095405 
L 469.855586 37.393729 
L 470.111462 36.692053 
L 470.367338 35.990376 
L 470.623213 35.2887 
L 470.879089 34.587024 
L 471.134965 33.885347 
L 471.390841 33.183671 
L 471.646716 32.481995 
L 471.902592 31.780318 
L 472.158468 31.078642 
L 472.414344 30.376966 
L 472.670219 29.675289 
L 472.926095 28.973613 
L 473.181971 28.271937 
L 473.437846 27.57026 
L 473.693722 26.868584 
L 473.949598 26.166908 
L 474.205474 25.465231 
L 474.461349 24.763555 
" clip-path="url(#p1db59cf4d0)" style="fill: none; stroke-dasharray: 2,3.3; stroke-dashoffset: 0; stroke: #d62728; stroke-width: 2"/>
   </g>
   <g id="patch_3">
    <path d="M 35.589688 273.290313 
L 35.589688 11.318906 
" style="fill: none; stroke: #000000; stroke-width: 0.8; stroke-linejoin: miter; stroke-linecap: square"/>
   </g>
   <g id="patch_4">
    <path d="M 495.36 273.290313 
L 495.36 11.318906 
" style="fill: none; stroke: #000000; stroke-width: 0.8; stroke-linejoin: miter; stroke-linecap: square"/>
   </g>
   <g id="patch_5">
    <path d="M 35.589687 273.290312 
L 495.36 273.290312 
" style="fill: none; stroke: #000000; stroke-width: 0.8; stroke-linejoin: miter; stroke-linecap: square"/>
   </g>
   <g id="patch_6">
    <path d="M 35.589687 11.318906 
L 495.36 11.318906 
" style="fill: none; stroke: #000000; stroke-width: 0.8; stroke-linejoin: miter; stroke-linecap: square"/>
   </g>
   <g id="text_46">
    <!-- Cumulative number of protein designs over the years -->
    <g transform="translate(171.622891 5.318906) scale(0.07 -0.07)">
     <defs>
      <path id="DejaVuSans-68" d="M 3513 2113 
L 3513 0 
L 2938 0 
L 2938 2094 
Q 2938 2591 2744 2837 
Q 2550 3084 2163 3084 
Q 1697 3084 1428 2787 
Q 1159 2491 1159 1978 
L 1159 0 
L 581 0 
L 581 4863 
L 1159 4863 
L 1159 2956 
Q 1366 3272 1645 3428 
Q 1925 3584 2291 3584 
Q 2894 3584 3203 3211 
Q 3513 2838 3513 2113 
z
" transform="scale(0.015625)"/>
      <path id="DejaVuSans-79" d="M 2059 -325 
Q 1816 -950 1584 -1140 
Q 1353 -1331 966 -1331 
L 506 -1331 
L 506 -850 
L 844 -850 
Q 1081 -850 1212 -737 
Q 1344 -625 1503 -206 
L 1606 56 
L 191 3500 
L 800 3500 
L 1894 763 
L 2988 3500 
L 3597 3500 
L 2059 -325 
z
" transform="scale(0.015625)"/>
     </defs>
     <use xlink:href="#DejaVuSans-43"/>
     <use xlink:href="#DejaVuSans-75" x="69.824219"/>
     <use xlink:href="#DejaVuSans-6d" x="133.203125"/>
     <use xlink:href="#DejaVuSans-75" x="230.615234"/>
     <use xlink:href="#DejaVuSans-6c" x="293.994141"/>
     <use xlink:href="#DejaVuSans-61" x="321.777344"/>
     <use xlink:href="#DejaVuSans-74" x="383.056641"/>
     <use xlink:href="#DejaVuSans-69" x="422.265625"/>
     <use xlink:href="#DejaVuSans-76" x="450.048828"/>
     <use xlink:href="#DejaVuSans-65" x="509.228516"/>
     <use xlink:href="#DejaVuSans-20" x="570.751953"/>
     <use xlink:href="#DejaVuSans-6e" x="602.539062"/>
     <use xlink:href="#DejaVuSans-75" x="665.917969"/>
     <use xlink:href="#DejaVuSans-6d" x="729.296875"/>
     <use xlink:href="#DejaVuSans-62" x="826.708984"/>
     <use xlink:href="#DejaVuSans-65" x="890.185547"/>
     <use xlink:href="#DejaVuSans-72" x="951.708984"/>
     <use xlink:href="#DejaVuSans-20" x="992.822266"/>
     <use xlink:href="#DejaVuSans-6f" x="1024.609375"/>
     <use xlink:href="#DejaVuSans-66" x="1085.791016"/>
     <use xlink:href="#DejaVuSans-20" x="1120.996094"/>
     <use xlink:href="#DejaVuSans-70" x="1152.783203"/>
     <use xlink:href="#DejaVuSans-72" x="1216.259766"/>
     <use xlink:href="#DejaVuSans-6f" x="1255.123047"/>
     <use xlink:href="#DejaVuSans-74" x="1316.304688"/>
     <use xlink:href="#DejaVuSans-65" x="1355.513672"/>
     <use xlink:href="#DejaVuSans-69" x="1417.037109"/>
     <use xlink:href="#DejaVuSans-6e" x="1444.820312"/>
     <use xlink:href="#DejaVuSans-20" x="1508.199219"/>
     <use xlink:href="#DejaVuSans-64" x="1539.986328"/>
     <use xlink:href="#DejaVuSans-65" x="1603.462891"/>
     <use xlink:href="#DejaVuSans-73" x="1664.986328"/>
     <use xlink:href="#DejaVuSans-69" x="1717.085938"/>
     <use xlink:href="#DejaVuSans-67" x="1744.869141"/>
     <use xlink:href="#DejaVuSans-6e" x="1808.345703"/>
     <use xlink:href="#DejaVuSans-73" x="1871.724609"/>
     <use xlink:href="#DejaVuSans-20" x="1923.824219"/>
     <use xlink:href="#DejaVuSans-6f" x="1955.611328"/>
     <use xlink:href="#DejaVuSans-76" x="2016.792969"/>
     <use xlink:href="#DejaVuSans-65" x="2075.972656"/>
     <use xlink:href="#DejaVuSans-72" x="2137.496094"/>
     <use xlink:href="#DejaVuSans-20" x="2178.609375"/>
     <use xlink:href="#DejaVuSans-74" x="2210.396484"/>
     <use xlink:href="#DejaVuSans-68" x="2249.605469"/>
     <use xlink:href="#DejaVuSans-65" x="2312.984375"/>
     <use xlink:href="#DejaVuSans-20" x="2374.507812"/>
     <use xlink:href="#DejaVuSans-79" x="2406.294922"/>
     <use xlink:href="#DejaVuSans-65" x="2465.474609"/>
     <use xlink:href="#DejaVuSans-61" x="2526.998047"/>
     <use xlink:href="#DejaVuSans-72" x="2588.277344"/>
     <use xlink:href="#DejaVuSans-73" x="2629.390625"/>
    </g>
   </g>
   <g id="legend_1">
    <g id="patch_7">
     <path d="M 40.489688 58.017656 
L 283.565781 58.017656 
Q 284.965781 58.017656 284.965781 56.617656 
L 284.965781 16.218906 
Q 284.965781 14.818906 283.565781 14.818906 
L 40.489688 14.818906 
Q 39.089688 14.818906 39.089688 16.218906 
L 39.089688 56.617656 
Q 39.089688 58.017656 40.489688 58.017656 
z
" style="fill: #ffffff; opacity: 0.8; stroke: #cccccc; stroke-linejoin: miter"/>
    </g>
    <g id="PathCollection_2">
     <g>
      <use xlink:href="#m173322b256" x="48.889688" y="21.100313" style="fill: #1f77b4; stroke: #1f77b4"/>
     </g>
    </g>
    <g id="text_47">
     <!-- Cumulative number of protein designs -->
     <g transform="translate(61.489688 22.937813) scale(0.07 -0.07)">
      <use xlink:href="#DejaVuSans-43"/>
      <use xlink:href="#DejaVuSans-75" x="69.824219"/>
      <use xlink:href="#DejaVuSans-6d" x="133.203125"/>
      <use xlink:href="#DejaVuSans-75" x="230.615234"/>
      <use xlink:href="#DejaVuSans-6c" x="293.994141"/>
      <use xlink:href="#DejaVuSans-61" x="321.777344"/>
      <use xlink:href="#DejaVuSans-74" x="383.056641"/>
      <use xlink:href="#DejaVuSans-69" x="422.265625"/>
      <use xlink:href="#DejaVuSans-76" x="450.048828"/>
      <use xlink:href="#DejaVuSans-65" x="509.228516"/>
      <use xlink:href="#DejaVuSans-20" x="570.751953"/>
      <use xlink:href="#DejaVuSans-6e" x="602.539062"/>
      <use xlink:href="#DejaVuSans-75" x="665.917969"/>
      <use xlink:href="#DejaVuSans-6d" x="729.296875"/>
      <use xlink:href="#DejaVuSans-62" x="826.708984"/>
      <use xlink:href="#DejaVuSans-65" x="890.185547"/>
      <use xlink:href="#DejaVuSans-72" x="951.708984"/>
      <use xlink:href="#DejaVuSans-20" x="992.822266"/>
      <use xlink:href="#DejaVuSans-6f" x="1024.609375"/>
      <use xlink:href="#DejaVuSans-66" x="1085.791016"/>
      <use xlink:href="#DejaVuSans-20" x="1120.996094"/>
      <use xlink:href="#DejaVuSans-70" x="1152.783203"/>
      <use xlink:href="#DejaVuSans-72" x="1216.259766"/>
      <use xlink:href="#DejaVuSans-6f" x="1255.123047"/>
      <use xlink:href="#DejaVuSans-74" x="1316.304688"/>
      <use xlink:href="#DejaVuSans-65" x="1355.513672"/>
      <use xlink:href="#DejaVuSans-69" x="1417.037109"/>
      <use xlink:href="#DejaVuSans-6e" x="1444.820312"/>
      <use xlink:href="#DejaVuSans-20" x="1508.199219"/>
      <use xlink:href="#DejaVuSans-64" x="1539.986328"/>
      <use xlink:href="#DejaVuSans-65" x="1603.462891"/>
      <use xlink:href="#DejaVuSans-73" x="1664.986328"/>
      <use xlink:href="#DejaVuSans-69" x="1717.085938"/>
      <use xlink:href="#DejaVuSans-67" x="1744.869141"/>
      <use xlink:href="#DejaVuSans-6e" x="1808.345703"/>
      <use xlink:href="#DejaVuSans-73" x="1871.724609"/>
     </g>
    </g>
    <g id="line2d_47">
     <path d="M 41.889688 30.7625 
L 48.889688 30.7625 
L 55.889688 30.7625 
" style="fill: none; stroke: #ff7f0e; stroke-width: 2; stroke-linecap: square"/>
    </g>
    <g id="text_48">
     <!-- Dominance of minimal and rational approaches -->
     <g transform="translate(61.489688 33.2125) scale(0.07 -0.07)">
      <defs>
       <path id="DejaVuSans-44" d="M 1259 4147 
L 1259 519 
L 2022 519 
Q 2988 519 3436 956 
Q 3884 1394 3884 2338 
Q 3884 3275 3436 3711 
Q 2988 4147 2022 4147 
L 1259 4147 
z
M 628 4666 
L 1925 4666 
Q 3281 4666 3915 4102 
Q 4550 3538 4550 2338 
Q 4550 1131 3912 565 
Q 3275 0 1925 0 
L 628 0 
L 628 4666 
z
" transform="scale(0.015625)"/>
       <path id="DejaVuSans-63" d="M 3122 3366 
L 3122 2828 
Q 2878 2963 2633 3030 
Q 2388 3097 2138 3097 
Q 1578 3097 1268 2742 
Q 959 2388 959 1747 
Q 959 1106 1268 751 
Q 1578 397 2138 397 
Q 2388 397 2633 464 
Q 2878 531 3122 666 
L 3122 134 
Q 2881 22 2623 -34 
Q 2366 -91 2075 -91 
Q 1284 -91 818 406 
Q 353 903 353 1747 
Q 353 2603 823 3093 
Q 1294 3584 2113 3584 
Q 2378 3584 2631 3529 
Q 2884 3475 3122 3366 
z
" transform="scale(0.015625)"/>
      </defs>
      <use xlink:href="#DejaVuSans-44"/>
      <use xlink:href="#DejaVuSans-6f" x="77.001953"/>
      <use xlink:href="#DejaVuSans-6d" x="138.183594"/>
      <use xlink:href="#DejaVuSans-69" x="235.595703"/>
      <use xlink:href="#DejaVuSans-6e" x="263.378906"/>
      <use xlink:href="#DejaVuSans-61" x="326.757812"/>
      <use xlink:href="#DejaVuSans-6e" x="388.037109"/>
      <use xlink:href="#DejaVuSans-63" x="451.416016"/>
      <use xlink:href="#DejaVuSans-65" x="506.396484"/>
      <use xlink:href="#DejaVuSans-20" x="567.919922"/>
      <use xlink:href="#DejaVuSans-6f" x="599.707031"/>
      <use xlink:href="#DejaVuSans-66" x="660.888672"/>
      <use xlink:href="#DejaVuSans-20" x="696.09375"/>
      <use xlink:href="#DejaVuSans-6d" x="727.880859"/>
      <use xlink:href="#DejaVuSans-69" x="825.292969"/>
      <use xlink:href="#DejaVuSans-6e" x="853.076172"/>
      <use xlink:href="#DejaVuSans-69" x="916.455078"/>
      <use xlink:href="#DejaVuSans-6d" x="944.238281"/>
      <use xlink:href="#DejaVuSans-61" x="1041.650391"/>
      <use xlink:href="#DejaVuSans-6c" x="1102.929688"/>
      <use xlink:href="#DejaVuSans-20" x="1130.712891"/>
      <use xlink:href="#DejaVuSans-61" x="1162.5"/>
      <use xlink:href="#DejaVuSans-6e" x="1223.779297"/>
      <use xlink:href="#DejaVuSans-64" x="1287.158203"/>
      <use xlink:href="#DejaVuSans-20" x="1350.634766"/>
      <use xlink:href="#DejaVuSans-72" x="1382.421875"/>
      <use xlink:href="#DejaVuSans-61" x="1423.535156"/>
      <use xlink:href="#DejaVuSans-74" x="1484.814453"/>
      <use xlink:href="#DejaVuSans-69" x="1524.023438"/>
      <use xlink:href="#DejaVuSans-6f" x="1551.806641"/>
      <use xlink:href="#DejaVuSans-6e" x="1612.988281"/>
      <use xlink:href="#DejaVuSans-61" x="1676.367188"/>
      <use xlink:href="#DejaVuSans-6c" x="1737.646484"/>
      <use xlink:href="#DejaVuSans-20" x="1765.429688"/>
      <use xlink:href="#DejaVuSans-61" x="1797.216797"/>
      <use xlink:href="#DejaVuSans-70" x="1858.496094"/>
      <use xlink:href="#DejaVuSans-70" x="1921.972656"/>
      <use xlink:href="#DejaVuSans-72" x="1985.449219"/>
      <use xlink:href="#DejaVuSans-6f" x="2024.3125"/>
      <use xlink:href="#DejaVuSans-61" x="2085.494141"/>
      <use xlink:href="#DejaVuSans-63" x="2146.773438"/>
      <use xlink:href="#DejaVuSans-68" x="2201.753906"/>
      <use xlink:href="#DejaVuSans-65" x="2265.132812"/>
      <use xlink:href="#DejaVuSans-73" x="2326.65625"/>
     </g>
    </g>
    <g id="line2d_48">
     <path d="M 41.889688 41.037188 
L 48.889688 41.037188 
L 55.889688 41.037188 
" style="fill: none; stroke-dasharray: 12.8,3.2,2,3.2; stroke-dashoffset: 0; stroke: #2ca02c; stroke-width: 2"/>
    </g>
    <g id="text_49">
     <!-- Dominance of computational, physics-based approaches -->
     <g transform="translate(61.489688 43.487188) scale(0.07 -0.07)">
      <defs>
       <path id="DejaVuSans-2c" d="M 750 794 
L 1409 794 
L 1409 256 
L 897 -744 
L 494 -744 
L 750 256 
L 750 794 
z
" transform="scale(0.015625)"/>
       <path id="DejaVuSans-2d" d="M 313 2009 
L 1997 2009 
L 1997 1497 
L 313 1497 
L 313 2009 
z
" transform="scale(0.015625)"/>
      </defs>
      <use xlink:href="#DejaVuSans-44"/>
      <use xlink:href="#DejaVuSans-6f" x="77.001953"/>
      <use xlink:href="#DejaVuSans-6d" x="138.183594"/>
      <use xlink:href="#DejaVuSans-69" x="235.595703"/>
      <use xlink:href="#DejaVuSans-6e" x="263.378906"/>
      <use xlink:href="#DejaVuSans-61" x="326.757812"/>
      <use xlink:href="#DejaVuSans-6e" x="388.037109"/>
      <use xlink:href="#DejaVuSans-63" x="451.416016"/>
      <use xlink:href="#DejaVuSans-65" x="506.396484"/>
      <use xlink:href="#DejaVuSans-20" x="567.919922"/>
      <use xlink:href="#DejaVuSans-6f" x="599.707031"/>
      <use xlink:href="#DejaVuSans-66" x="660.888672"/>
      <use xlink:href="#DejaVuSans-20" x="696.09375"/>
      <use xlink:href="#DejaVuSans-63" x="727.880859"/>
      <use xlink:href="#DejaVuSans-6f" x="782.861328"/>
      <use xlink:href="#DejaVuSans-6d" x="844.042969"/>
      <use xlink:href="#DejaVuSans-70" x="941.455078"/>
      <use xlink:href="#DejaVuSans-75" x="1004.931641"/>
      <use xlink:href="#DejaVuSans-74" x="1068.310547"/>
      <use xlink:href="#DejaVuSans-61" x="1107.519531"/>
      <use xlink:href="#DejaVuSans-74" x="1168.798828"/>
      <use xlink:href="#DejaVuSans-69" x="1208.007812"/>
      <use xlink:href="#DejaVuSans-6f" x="1235.791016"/>
      <use xlink:href="#DejaVuSans-6e" x="1296.972656"/>
      <use xlink:href="#DejaVuSans-61" x="1360.351562"/>
      <use xlink:href="#DejaVuSans-6c" x="1421.630859"/>
      <use xlink:href="#DejaVuSans-2c" x="1449.414062"/>
      <use xlink:href="#DejaVuSans-20" x="1481.201172"/>
      <use xlink:href="#DejaVuSans-70" x="1512.988281"/>
      <use xlink:href="#DejaVuSans-68" x="1576.464844"/>
      <use xlink:href="#DejaVuSans-79" x="1639.84375"/>
      <use xlink:href="#DejaVuSans-73" x="1699.023438"/>
      <use xlink:href="#DejaVuSans-69" x="1751.123047"/>
      <use xlink:href="#DejaVuSans-63" x="1778.90625"/>
      <use xlink:href="#DejaVuSans-73" x="1833.886719"/>
      <use xlink:href="#DejaVuSans-2d" x="1885.986328"/>
      <use xlink:href="#DejaVuSans-62" x="1922.070312"/>
      <use xlink:href="#DejaVuSans-61" x="1985.546875"/>
      <use xlink:href="#DejaVuSans-73" x="2046.826172"/>
      <use xlink:href="#DejaVuSans-65" x="2098.925781"/>
      <use xlink:href="#DejaVuSans-64" x="2160.449219"/>
      <use xlink:href="#DejaVuSans-20" x="2223.925781"/>
      <use xlink:href="#DejaVuSans-61" x="2255.712891"/>
      <use xlink:href="#DejaVuSans-70" x="2316.992188"/>
      <use xlink:href="#DejaVuSans-70" x="2380.46875"/>
      <use xlink:href="#DejaVuSans-72" x="2443.945312"/>
      <use xlink:href="#DejaVuSans-6f" x="2482.808594"/>
      <use xlink:href="#DejaVuSans-61" x="2543.990234"/>
      <use xlink:href="#DejaVuSans-63" x="2605.269531"/>
      <use xlink:href="#DejaVuSans-68" x="2660.25"/>
      <use xlink:href="#DejaVuSans-65" x="2723.628906"/>
      <use xlink:href="#DejaVuSans-73" x="2785.152344"/>
     </g>
    </g>
    <g id="line2d_49">
     <path d="M 41.889688 51.311875 
L 48.889688 51.311875 
L 55.889688 51.311875 
" style="fill: none; stroke-dasharray: 2,3.3; stroke-dashoffset: 0; stroke: #d62728; stroke-width: 2"/>
    </g>
    <g id="text_50">
     <!-- Emergence of computational, deep learning-based approaches -->
     <g transform="translate(61.489688 53.761875) scale(0.07 -0.07)">
      <defs>
       <path id="DejaVuSans-45" d="M 628 4666 
L 3578 4666 
L 3578 4134 
L 1259 4134 
L 1259 2753 
L 3481 2753 
L 3481 2222 
L 1259 2222 
L 1259 531 
L 3634 531 
L 3634 0 
L 628 0 
L 628 4666 
z
" transform="scale(0.015625)"/>
      </defs>
      <use xlink:href="#DejaVuSans-45"/>
      <use xlink:href="#DejaVuSans-6d" x="63.183594"/>
      <use xlink:href="#DejaVuSans-65" x="160.595703"/>
      <use xlink:href="#DejaVuSans-72" x="222.119141"/>
      <use xlink:href="#DejaVuSans-67" x="261.482422"/>
      <use xlink:href="#DejaVuSans-65" x="324.958984"/>
      <use xlink:href="#DejaVuSans-6e" x="386.482422"/>
      <use xlink:href="#DejaVuSans-63" x="449.861328"/>
      <use xlink:href="#DejaVuSans-65" x="504.841797"/>
      <use xlink:href="#DejaVuSans-20" x="566.365234"/>
      <use xlink:href="#DejaVuSans-6f" x="598.152344"/>
      <use xlink:href="#DejaVuSans-66" x="659.333984"/>
      <use xlink:href="#DejaVuSans-20" x="694.539062"/>
      <use xlink:href="#DejaVuSans-63" x="726.326172"/>
      <use xlink:href="#DejaVuSans-6f" x="781.306641"/>
      <use xlink:href="#DejaVuSans-6d" x="842.488281"/>
      <use xlink:href="#DejaVuSans-70" x="939.900391"/>
      <use xlink:href="#DejaVuSans-75" x="1003.376953"/>
      <use xlink:href="#DejaVuSans-74" x="1066.755859"/>
      <use xlink:href="#DejaVuSans-61" x="1105.964844"/>
      <use xlink:href="#DejaVuSans-74" x="1167.244141"/>
      <use xlink:href="#DejaVuSans-69" x="1206.453125"/>
      <use xlink:href="#DejaVuSans-6f" x="1234.236328"/>
      <use xlink:href="#DejaVuSans-6e" x="1295.417969"/>
      <use xlink:href="#DejaVuSans-61" x="1358.796875"/>
      <use xlink:href="#DejaVuSans-6c" x="1420.076172"/>
      <use xlink:href="#DejaVuSans-2c" x="1447.859375"/>
      <use xlink:href="#DejaVuSans-20" x="1479.646484"/>
      <use xlink:href="#DejaVuSans-64" x="1511.433594"/>
      <use xlink:href="#DejaVuSans-65" x="1574.910156"/>
      <use xlink:href="#DejaVuSans-65" x="1636.433594"/>
      <use xlink:href="#DejaVuSans-70" x="1697.957031"/>
      <use xlink:href="#DejaVuSans-20" x="1761.433594"/>
      <use xlink:href="#DejaVuSans-6c" x="1793.220703"/>
      <use xlink:href="#DejaVuSans-65" x="1821.003906"/>
      <use xlink:href="#DejaVuSans-61" x="1882.527344"/>
      <use xlink:href="#DejaVuSans-72" x="1943.806641"/>
      <use xlink:href="#DejaVuSans-6e" x="1983.169922"/>
      <use xlink:href="#DejaVuSans-69" x="2046.548828"/>
      <use xlink:href="#DejaVuSans-6e" x="2074.332031"/>
      <use xlink:href="#DejaVuSans-67" x="2137.710938"/>
      <use xlink:href="#DejaVuSans-2d" x="2201.1875"/>
      <use xlink:href="#DejaVuSans-62" x="2237.271484"/>
      <use xlink:href="#DejaVuSans-61" x="2300.748047"/>
      <use xlink:href="#DejaVuSans-73" x="2362.027344"/>
      <use xlink:href="#DejaVuSans-65" x="2414.126953"/>
      <use xlink:href="#DejaVuSans-64" x="2475.650391"/>
      <use xlink:href="#DejaVuSans-20" x="2539.126953"/>
      <use xlink:href="#DejaVuSans-61" x="2570.914062"/>
      <use xlink:href="#DejaVuSans-70" x="2632.193359"/>
      <use xlink:href="#DejaVuSans-70" x="2695.669922"/>
      <use xlink:href="#DejaVuSans-72" x="2759.146484"/>
      <use xlink:href="#DejaVuSans-6f" x="2798.009766"/>
      <use xlink:href="#DejaVuSans-61" x="2859.191406"/>
      <use xlink:href="#DejaVuSans-63" x="2920.470703"/>
      <use xlink:href="#DejaVuSans-68" x="2975.451172"/>
      <use xlink:href="#DejaVuSans-65" x="3038.830078"/>
      <use xlink:href="#DejaVuSans-73" x="3100.353516"/>
     </g>
    </g>
   </g>
  </g>
 </g>
 <defs>
  <clipPath id="p1db59cf4d0">
   <rect x="35.589688" y="11.318906" width="459.770312" height="261.971406"/>
  </clipPath>
 </defs>
</svg>
